<svg width="72" height="72" viewBox="0 0 72 72" fill="none" xmlns="http://www.w3.org/2000/svg">
<g clip-path="url(#clip0_52_284)">
<path d="M36 72C55.8823 72 72 55.8823 72 36C72 16.1178 55.8823 0 36 0C16.1178 0 0 16.1178 0 36C0 55.8823 16.1178 72 36 72Z" fill="#D2483D"/>
<path d="M60 36L21.6046 55.2051L38.1227 71.936C53.4322 71.0456 66.1724 60.5898 70.4558 46.4558L60 36Z" fill="#9E231D"/>
<path d="M35.2499 42.0203C40.0825 42.0203 44 38.1028 44 33.2703C44 28.4378 40.0825 24.5202 35.2499 24.5202C30.4174 24.5202 26.4999 28.4378 26.4999 33.2703C26.4999 38.1028 30.4174 42.0203 35.2499 42.0203Z" fill="#E39D46"/>
<path d="M35.2499 42.9898C29.8906 42.9898 25.5302 38.6296 25.5302 33.27C25.5302 27.9105 29.8904 23.5503 35.2499 23.5503C40.6094 23.5503 44.9697 27.9105 44.9697 33.27C44.9697 38.6296 40.6094 42.9898 35.2499 42.9898ZM35.2499 25.4899C30.96 25.4899 27.4695 28.9801 27.4695 33.2703C27.4695 37.5605 30.9597 41.0507 35.2499 41.0507C39.5401 41.0507 43.0303 37.5605 43.0303 33.2703C43.0303 28.9801 39.5401 25.4899 35.2499 25.4899Z" fill="#F7CA68"/>
<path d="M35.2499 37.6453C37.6662 37.6453 39.6249 35.6866 39.6249 33.2703C39.6249 30.854 37.6662 28.8953 35.2499 28.8953C32.8336 28.8953 30.8749 30.854 30.8749 33.2703C30.8749 35.6866 32.8336 37.6453 35.2499 37.6453Z" fill="#E39D46"/>
<path d="M35.2499 38.6148C32.303 38.6148 29.9052 36.217 29.9052 33.2701C29.9052 30.3231 32.303 27.9253 35.2499 27.9253C38.1968 27.9253 40.5947 30.3231 40.5947 33.2701C40.5947 36.217 38.1971 38.6148 35.2499 38.6148ZM35.2499 29.8647C33.3724 29.8647 31.8446 31.3925 31.8446 33.2701C31.8446 35.1476 33.3724 36.6754 35.2499 36.6754C37.1275 36.6754 38.6553 35.1476 38.6553 33.2701C38.6553 31.3925 37.1275 29.8647 35.2499 29.8647Z" fill="#F7CA68"/>
<path d="M35.25 24.5202C35.2306 24.5202 35.2114 24.5217 35.192 24.5217V42.0187C35.2114 42.0189 35.2306 42.0201 35.25 42.0201C40.0824 42.0201 44 38.1025 44 33.2701C44 28.4378 40.0824 24.5202 35.25 24.5202Z" fill="#C46116"/>
<path d="M35.25 23.5505C35.2306 23.5505 35.2114 23.552 35.192 23.552V25.4914C35.2114 25.4911 35.2306 25.4899 35.25 25.4899C39.5399 25.4899 43.0303 28.9801 43.0303 33.2703C43.0303 37.5605 39.5401 41.0507 35.25 41.0507C35.2306 41.0507 35.2114 41.0494 35.192 41.0492V42.9886C35.2114 42.9886 35.2306 42.99 35.25 42.99C40.6092 42.99 44.9697 38.6298 44.9697 33.2703C44.9697 27.9108 40.6095 23.5505 35.25 23.5505Z" fill="#D89221"/>
<path d="M35.25 28.8953C35.2303 28.8953 35.2114 28.8979 35.192 28.8982V37.6424C35.2117 37.6427 35.2303 37.6453 35.25 37.6453C37.6662 37.6453 39.625 35.6865 39.625 33.2703C39.625 30.8541 37.6662 28.8953 35.25 28.8953Z" fill="#C46116"/>
<path d="M35.25 27.9253C35.2306 27.9253 35.2114 27.9265 35.192 27.9268V29.8676C35.2114 29.8674 35.2303 29.8647 35.25 29.8647C37.1275 29.8647 38.6553 31.3925 38.6553 33.2701C38.6553 35.1476 37.1275 36.6754 35.25 36.6754C35.2303 36.6754 35.2114 36.6727 35.192 36.6725V38.6133C35.2114 38.6136 35.2306 38.6148 35.25 38.6148C38.1969 38.6148 40.5947 36.217 40.5947 33.2701C40.5947 30.3231 38.1971 27.9253 35.25 27.9253Z" fill="#D89221"/>
<path d="M24 44C28.4183 44 32 40.4183 32 36C32 31.5817 28.4183 28 24 28C19.5817 28 16 31.5817 16 36C16 40.4183 19.5817 44 24 44Z" fill="#E39D46"/>
<path d="M24 44.9697C19.054 44.9697 15.0303 40.9459 15.0303 36C15.0303 31.0541 19.054 27.0303 24 27.0303C28.9459 27.0303 32.9697 31.0541 32.9697 36C32.9697 40.9459 28.9459 44.9697 24 44.9697ZM24 28.9697C20.1236 28.9697 16.9697 32.1236 16.9697 36C16.9697 39.8764 20.1236 43.0303 24 43.0303C27.8763 43.0303 31.0303 39.8764 31.0303 36C31.0303 32.1236 27.8763 28.9697 24 28.9697Z" fill="#F7CA68"/>
<path d="M24 40C26.2091 40 28 38.2091 28 36C28 33.7909 26.2091 32 24 32C21.7909 32 20 33.7909 20 36C20 38.2091 21.7909 40 24 40Z" fill="#E39D46"/>
<path d="M24 40.9697C21.2596 40.9697 19.0303 38.7404 19.0303 36C19.0303 33.2596 21.2596 31.0303 24 31.0303C26.7403 31.0303 28.9697 33.2596 28.9697 36C28.9697 38.7404 26.7403 40.9697 24 40.9697ZM24 32.9697C22.3289 32.9697 20.9697 34.329 20.9697 36C20.9697 37.671 22.3289 39.0303 24 39.0303C25.671 39.0303 27.0303 37.671 27.0303 36C27.0303 34.329 25.671 32.9697 24 32.9697Z" fill="#F7CA68"/>
<path d="M46 48C51.5228 48 56 43.5228 56 38C56 32.4772 51.5228 28 46 28C40.4772 28 36 32.4772 36 38C36 43.5228 40.4772 48 46 48Z" fill="#E39D46"/>
<path d="M46 48.9697C39.9512 48.9697 35.0303 44.0487 35.0303 38C35.0303 31.9513 39.9512 27.0303 46 27.0303C52.0487 27.0303 56.9697 31.9513 56.9697 38C56.9697 44.0487 52.0487 48.9697 46 48.9697ZM46 28.9697C41.0206 28.9697 36.9697 33.0206 36.9697 38C36.9697 42.9794 41.0206 47.0303 46 47.0303C50.9794 47.0303 55.0303 42.9794 55.0303 38C55.0303 33.0206 50.9794 28.9697 46 28.9697Z" fill="#F7CA68"/>
<path d="M46.0001 44.0606C49.3472 44.0606 52.0607 41.3472 52.0607 38C52.0607 34.6528 49.3472 31.9394 46.0001 31.9394C42.6529 31.9394 39.9395 34.6528 39.9395 38C39.9395 41.3472 42.6529 44.0606 46.0001 44.0606Z" fill="#E39D46"/>
<path d="M46 45.0303C42.1237 45.0303 38.9697 41.8764 38.9697 38C38.9697 34.1236 42.1237 30.9697 46 30.9697C49.8764 30.9697 53.0303 34.1236 53.0303 38C53.0303 41.8764 49.8764 45.0303 46 45.0303ZM46 32.9091C43.193 32.9091 40.9091 35.193 40.9091 38C40.9091 40.807 43.193 43.0909 46 43.0909C48.8071 43.0909 51.0909 40.807 51.0909 38C51.0909 35.193 48.8071 32.9091 46 32.9091Z" fill="#F7CA68"/>
<path d="M46 40C47.1046 40 48 39.1046 48 38C48 36.8954 47.1046 36 46 36C44.8954 36 44 36.8954 44 38C44 39.1046 44.8954 40 46 40Z" fill="#E67E22"/>
<path d="M46 40.9697C44.3624 40.9697 43.0303 39.6376 43.0303 38C43.0303 36.3624 44.3624 35.0303 46 35.0303C47.6375 35.0303 48.9697 36.3624 48.9697 38C48.9697 39.6376 47.6375 40.9697 46 40.9697ZM46 36.9697C45.4317 36.9697 44.9697 37.4318 44.9697 38C44.9697 38.5682 45.4317 39.0303 46 39.0303C46.5682 39.0303 47.0303 38.5682 47.0303 38C47.0303 37.4318 46.5682 36.9697 46 36.9697Z" fill="#F7CA68"/>
<path d="M60 36C60 49.2548 49.2548 60 36 60C22.7452 60 12 49.2548 12 36H60Z" fill="#F0DEB4"/>
<path d="M35.192 36V59.985C35.4604 59.9939 35.7295 60 36 60C49.2548 60 60 49.2548 60 36H35.192Z" fill="#D5C295"/>
<path d="M48 28.9697C47.4645 28.9697 47.0303 28.5355 47.0303 28V12C47.0303 11.4645 47.4645 11.0303 48 11.0303C48.5355 11.0303 48.9697 11.4645 48.9697 12V28C48.9697 28.5355 48.5355 28.9697 48 28.9697Z" fill="#F7CA68"/>
<path d="M44 32.9697C43.4645 32.9697 43.0303 32.5355 43.0303 32V16C43.0303 15.4645 43.4645 15.0303 44 15.0303C44.5355 15.0303 44.9697 15.4645 44.9697 16V32C44.9697 32.5355 44.5355 32.9697 44 32.9697Z" fill="#F7CA68"/>
<path d="M48 17.2121H16C15.3304 17.2121 14.7879 16.6696 14.7879 16C14.7879 15.3304 15.3304 14.7879 16 14.7879H48C48.6696 14.7879 49.2121 15.3304 49.2121 16C49.2121 16.6696 48.6696 17.2121 48 17.2121Z" fill="#D5C295"/>
<path d="M52 13.2121H20C19.3304 13.2121 18.7879 12.6696 18.7879 12C18.7879 11.3304 19.3304 10.7879 20 10.7879H52C52.6696 10.7879 53.2121 11.3304 53.2121 12C53.2121 12.6696 52.6696 13.2121 52 13.2121Z" fill="#D5C295"/>
<path d="M48 14.7879H35.9193V17.2121H48C48.6695 17.2121 49.2121 16.6696 49.2121 16C49.2121 15.3304 48.6695 14.7879 48 14.7879Z" fill="#BCA77E"/>
<path d="M52 10.7879H35.9193V13.2121H52C52.6695 13.2121 53.2121 12.6696 53.2121 12C53.2121 11.3304 52.6695 10.7879 52 10.7879Z" fill="#BCA77E"/>
</g>
<defs>
<clipPath id="clip0_52_284">
<rect width="72" height="72" fill="white"/>
</clipPath>
</defs>
</svg>
